PathFileType	4	(X/Y/Z)	C:\Users\chris\Documents\GitHub\baseballds\vids\pitch5_Sports2D\pitch5_Sports2D_px_person01.trc
DataRate	CameraRate	NumFrames	NumMarkers	Units	OrigDataRate	OrigDataStartFrame	OrigNumFrames
30	30	8	22	m	30	55	149
Frame#	Time	Hip			RHip			RKnee			RAnkle			RBigToe			RSmallToe			RHeel			LHip			LKnee			LAnkle			LBigToe			LSmallToe			LHeel			Neck			Head			Nose			RShoulder			RElbow			RWrist			LShoulder			LElbow			LWrist		
		X1	Y1	Z1	X2	Y2	Z2	X3	Y3	Z3	X4	Y4	Z4	X5	Y5	Z5	X6	Y6	Z6	X7	Y7	Z7	X8	Y8	Z8	X9	Y9	Z9	X10	Y10	Z10	X11	Y11	Z11	X12	Y12	Z12	X13	Y13	Z13	X14	Y14	Z14	X15	Y15	Z15	X16	Y16	Z16	X17	Y17	Z17	X18	Y18	Z18	X19	Y19	Z19	X20	Y20	Z20	X21	Y21	Z21	X22	Y22	Z22
55	1.8333333333333333	424.3711061547547	558.8855370279138	0.0	401.6729096588714	562.7483646195765	0.0	385.40545402204197	662.0959962671375	0.0	374.1620425205683	753.9388999933873	0.0	392.54391531739515	785.1758917277091	0.0	375.12035693015486	785.7970025316395	0.0	367.6683532389133	767.1652283391365	0.0	448.1840976122701	563.1326814213851	0.0	449.75470680172543	658.49337758245	0.0	450.15422615593195	741.3255345270486	0.0	496.4005297353019	762.4598383510923	0.0	492.9899200546486	757.5773836372854	0.0	440.25145383260747	758.2852415502032	0.0	424.28589381825236	403.0293273160763	0.0	454.2302644554304	343.4689539981791	0.0	465.62956391987575	385.2177077336838	0.0	380.3455187851624	419.8859651875342	0.0	356.3418471240973	490.1621508995623	0.0	370.12465482358385	546.1937880010621	0.0	447.6314140987275	422.6204729417879	0.0	440.8763722032422	484.8300228410268	0.0	405.9485387466436	530.4009462036223	0.0
56	1.8666666666666667	424.7990888153628	559.0243052091657	0.0	402.1848505296113	562.089448478863	0.0	385.81348401654157	662.0973581989907	0.0	374.2656835817985	754.681276987008	0.0	393.160095200469	785.5295369601619	0.0	375.68651434361334	786.1500615264326	0.0	367.6744016472288	767.7644287353421	0.0	448.4282042554961	562.5231979096266	0.0	449.89378418235594	658.509304611073	0.0	450.4416467876044	741.9874058829121	0.0	497.2852482198416	762.9127694093445	0.0	493.8637911373146	758.309070900712	0.0	440.336708869747	758.5788373159987	0.0	424.9991145286785	403.469066836374	0.0	455.09511237871317	343.258890470853	0.0	466.3486943137275	384.87012820428333	0.0	380.9562603912492	420.07481270123463	0.0	356.7701948187624	490.13080898412716	0.0	370.10286555567325	545.8961238461279	0.0	448.57094517716547	422.85467551228817	0.0	440.9896723184995	484.91427110581634	0.0	405.5611813338114	530.6330016515269	0.0
57	1.9	425.59416179496344	559.1315745839563	0.0	402.73521955898605	562.5912787151152	0.0	386.40425525230035	662.0548012414567	0.0	374.7783679408877	755.6053953644798	0.0	393.5567370476582	785.7463252206369	0.0	376.5188513917227	786.4972531594957	0.0	367.7706480263877	768.8064710151666	0.0	449.36337251815155	562.6044648276854	0.0	450.2115471893251	658.8851834190348	0.0	450.91163715753237	741.8984283685406	0.0	497.58372898519144	762.7193129959392	0.0	494.14248499282564	758.2193473454968	0.0	440.9937308348234	758.4777558309024	0.0	425.8630223919025	403.24292382333954	0.0	455.44773668194057	343.58249548872635	0.0	467.441565400628	384.94045554726245	0.0	381.82060238805644	419.717274504319	0.0	357.6605810943147	489.7645960678738	0.0	370.529470562888	546.1208764603716	0.0	449.6785341529906	422.96468383798447	0.0	442.2791179812237	484.4247410142183	0.0	405.7807843220702	530.5078168477031	0.0
58	1.9333333333333333	426.55722745124535	559.2289322515977	0.0	403.2099772682315	563.0931263880265	0.0	387.00322550786916	662.0947989530453	0.0	375.4548302711059	756.1688599396305	0.0	393.9690761305529	785.6359180254173	0.0	377.5018208897125	786.7695553564049	0.0	367.9229299417016	769.7050886535451	0.0	450.26001345668095	562.6793673703675	0.0	450.778214718099	659.1205215512036	0.0	451.53828553393777	741.2632600495638	0.0	497.27340831821937	762.1724571139418	0.0	493.86341626293427	757.5676960866522	0.0	441.93341885243836	758.1059735776912	0.0	426.7453234782726	403.04274819396335	0.0	455.78326517750975	343.66877818600943	0.0	468.4998426462806	384.6128249468568	0.0	382.3272216928397	419.59936151009913	0.0	358.5555355416933	489.93530756019703	0.0	371.46777118327725	546.5197051378046	0.0	450.48555542355547	422.98238024886075	0.0	443.4699630040627	484.3564573392291	0.0	406.4096437326102	530.6458290979593	0.0
59	1.9666666666666666	427.3536084137868	559.3807446950881	0.0	403.65292030476155	562.7873117693225	0.0	387.387812442304	662.2396688906919	0.0	375.8775276972078	755.9066759011345	0.0	394.5944792829397	785.3275217147868	0.0	378.22900291160437	786.8413638770107	0.0	367.9393217018446	769.8338893887025	0.0	450.52184623122	562.4034473845591	0.0	451.3488956262747	659.0459857424344	0.0	452.0887490591382	740.7806543173922	0.0	496.8279071724879	761.848688118343	0.0	493.6079210444621	757.2299212276569	0.0	442.55887019506247	757.9453867747117	0.0	427.6193655780158	403.30244301546946	0.0	456.33843549727294	343.08861609437673	0.0	469.1709038378036	383.46334294412014	0.0	382.42220450795674	420.29315266684824	0.0	359.13124660232586	491.12975902693285	0.0	372.76664481270933	546.9611158428208	0.0	450.93249908972535	423.2564108572195	0.0	444.4171838128322	484.9043290670372	0.0	406.9142934661301	531.319401162206	0.0
60	2.0	427.86724360331175	559.8109629900007	0.0	404.2480416714905	562.8777322784799	0.0	387.6769879168195	662.3910011950518	0.0	376.1260921213236	755.2696779524103	0.0	395.2635891464991	785.3043146163379	0.0	378.6598913992085	786.7763616249813	0.0	368.1044830326918	769.3883307511446	0.0	450.6944923323499	562.627466481239	0.0	451.95071783643897	659.22888320526	0.0	452.43056534875757	740.70969730393	0.0	496.8187859797414	761.8776733786515	0.0	493.9181671017931	757.4076650563603	0.0	442.83108586249284	758.1606042300582	0.0	428.3183431493266	403.66388674595277	0.0	456.79557143987665	342.83761535206844	0.0	469.5549695103287	382.92650244167373	0.0	382.6460066917697	421.2833685086697	0.0	359.615465849451	492.3574018816138	0.0	374.0549733668754	547.4489856037347	0.0	451.4096642735711	423.70025640228596	0.0	446.1640041423718	485.08803559370864	0.0	407.3345325383066	531.6993198386039	0.0
61	2.033333333333333	428.1559042029062	560.3961188797156	0.0	404.8973134433553	564.1073159871145	0.0	388.12491915950244	662.537285466357	0.0	376.4465749469142	755.173704268466	0.0	395.79717195663625	785.8320085745377	0.0	378.88701039134287	786.9801017816599	0.0	368.7022367900051	769.1033919467523	0.0	451.3434092718575	563.7218912003367	0.0	452.676832553646	659.9296350156866	0.0	452.5942549600634	740.9420175180844	0.0	497.58785446683953	762.2733203791033	0.0	494.8259692326583	757.9117112891485	0.0	442.98593506681027	758.6281048796745	0.0	428.8165589170914	403.6582982515704	0.0	456.9084046632416	343.4289484806154	0.0	470.06034373106513	383.61067853552794	0.0	383.41973636925434	421.5481356633361	0.0	360.16030639820127	491.9254972748481	0.0	374.60829047254583	547.6827310072698	0.0	452.0650595020835	423.8101241350432	0.0	447.7448398253839	484.60274380727174	0.0	407.9524230991296	531.1153539202908	0.0
62	2.0666666666666664	428.26585640590747	560.6019376882382	0.0	405.24825154156986	565.1584080388978	0.0	388.6797880780556	662.798913361904	0.0	376.81199886696777	755.6004810936456	0.0	396.15953867400776	786.4727180388667	0.0	378.77879899113765	787.5212854104318	0.0	369.5203355310431	769.1604923391889	0.0	452.10880008579915	564.7496820273692	0.0	453.2044421188254	660.4544578661207	0.0	452.6713668373365	741.3563543280895	0.0	498.91945222226997	763.1251491022094	0.0	495.91965156933003	758.6577218087716	0.0	443.07244835828294	759.192524621566	0.0	429.3780048049753	403.48025822769637	0.0	456.8943670579016	343.8704801855681	0.0	470.77372762326183	384.0887557198965	0.0	384.4689889356696	421.10608033568815	0.0	360.5951784706298	490.0773081102544	0.0	374.2559058947687	547.4202617090928	0.0	452.9548667826523	423.70537575916103	0.0	447.8526926629305	484.5050862687084	0.0	409.1342289282458	530.1230595930377	0.0
